<?xml version="1.0" encoding="UTF-8"?>
<svg id="Layer_2" data-name="Layer 2" xmlns="http://www.w3.org/2000/svg" viewBox="0 0 933.02 126.74">
  <defs>
    <style>
      .cls-1 {
        fill: #f08817;
      }

      .cls-2 {
        fill: #141838;
      }
    </style>
  </defs>
  <g id="Layer_1-2" data-name="Layer 1">
    <g>
      <path class="cls-2" d="M0,63.29C0,26.86,23,0,59.76,0c28.71,0,51.03,16.79,53.72,45.32h-29.54c-1.85-13.43-10.41-21.66-24.17-21.66-19.81,0-29.54,16.95-29.54,39.62s9.57,39.78,29.54,39.78c13.76,0,22.66-8.23,24.51-23.5h29.54c-2.35,30.05-25.35,47.17-54.05,47.17C22.49,126.74,0,99.71,0,63.29Z"/>
      <path class="cls-2" d="M127.75,2.52h28.87v121.7h-28.87V2.52Z"/>
      <path class="cls-2" d="M189.87,86.62V26.19h-21.49V2.52h93v23.67h-42.47v56.07c0,14.94,5.37,19.81,18.97,19.81,6.88,0,13.93-1.34,20.65-3.52h.67v23.67c-9.06,3.02-19.98,4.53-30.55,4.53-27.7,0-38.78-11.08-38.78-40.12Z"/>
      <path class="cls-2" d="M283.88,124.73v-21.32h.67c2.52.67,5.37,1.01,9.9,1.01,7.72,0,12.92-2.85,16.62-9.9l1.01-2.18h-8.39L267.26,2.52h30.72l21.65,57.24c1.34,3.19,2.52,6.55,3.69,9.9h.5c1.18-3.53,2.18-6.55,3.53-9.9l20.65-57.24h29.71l-36.93,92.16c-9.23,23.5-20.14,32.06-40.96,32.06-6.04,0-11.25-.67-15.95-2.02Z"/>
      <path class="cls-2" d="M386.11,2.52h49.52c27.03,0,45.99,14.1,45.99,40.29s-19.14,40.96-45.99,40.96h-20.65v40.46h-28.87V2.52ZM452.59,43.14c0-12.76-7.22-17.63-19.47-17.63h-18.13v35.25h18.13c12.09,0,19.47-5.04,19.47-17.63Z"/>
      <path class="cls-2" d="M629.87,2.52h28.87v121.7h-28.87V2.52Z"/>
      <path class="cls-2" d="M704.24,2.52v17.29h.67c8.9-13.09,21.66-19.81,39.11-19.81,25.85,0,39.45,14.77,39.45,45.66v78.56h-29.04V50.19c0-18.3-6.55-26.02-20.65-26.02-17.12,0-28.37,11.75-28.37,29.38v70.67h-28.87V2.52h27.7Z"/>
      <path class="cls-2" d="M816.71,86.62V26.19h-21.49V2.52h93v23.67h-42.47v56.07c0,14.94,5.37,19.81,18.97,19.81,6.88,0,13.93-1.34,20.65-3.52h.67v23.67c-9.06,3.02-19.98,4.53-30.55,4.53-27.7,0-38.78-11.08-38.78-40.12Z"/>
      <circle class="cls-1" cx="914.53" cy="103.6" r="18.49"/>
      <g>
        <path class="cls-2" d="M592.34,43.96c-5.64,2.57-9.01,8.31-8.87,14.51.02.7.02,1.4,0,2.11.15,6.58-1.11,12.51-3.79,17.79-2.68,5.28-6.39,9.41-11.13,12.4-4.75,2.98-10.1,4.48-16.07,4.48s-11.56-1.49-16.3-4.48c-4.75-2.98-8.49-7.12-11.25-12.4-2.75-5.28-4.06-11.21-3.9-17.79-.15-6.73,1.15-12.7,3.9-17.91,2.75-5.2,6.5-9.33,11.25-12.4.86-.56,1.75-1.06,2.66-1.52,4.92-2.45,7.77-7.74,7.4-13.23h0c-.69-10.22-11.21-16.91-20.67-12.97-2.15.89-4.24,1.91-6.26,3.04-9.72,5.43-17.37,12.89-22.96,22.38-5.59,9.49-8.38,20.35-8.38,32.6s2.79,23.11,8.38,32.6c5.59,9.49,13.24,16.95,22.96,22.38,9.72,5.43,20.77,8.15,33.17,8.15s23.22-2.72,32.94-8.15c9.72-5.43,17.33-12.89,22.84-22.38,5.51-9.49,8.26-20.35,8.26-32.6,0-.46,0-.92-.01-1.38-.21-12.3-12.98-20.34-24.17-15.25h0Z"/>
        <circle class="cls-1" cx="575.49" cy="21.19" r="20.12"/>
      </g>
    </g>
  </g>
</svg>