<?xml version="1.0" encoding="UTF-8"?>
<svg id="Layer_2" data-name="Layer 2" xmlns="http://www.w3.org/2000/svg" viewBox="0 0 346.64 103.85">
  <defs>
    <style>
      .cls-1 {
        fill: #1d1d1b;
      }

      .cls-2 {
        fill: #ed7174;
      }
    </style>
  </defs>
  <g id="Layer_1-2" data-name="Layer 1">
    <g>
      <g>
        <g>
          <path class="cls-1" d="M23.01,65.37c-3.31,0-6.38-.44-9.2-1.31-2.82-.87-5.38-2.19-7.67-3.97-2.3-1.77-4.34-3.97-6.14-6.58l6.45-7.41c2.85,4.07,5.58,6.89,8.19,8.46,2.61,1.57,5.72,2.35,9.33,2.35,2.21,0,4.21-.35,6.01-1.05,1.8-.7,3.23-1.66,4.27-2.88,1.05-1.22,1.57-2.61,1.57-4.18,0-1.05-.17-2.03-.52-2.96s-.89-1.77-1.61-2.53c-.73-.75-1.66-1.45-2.79-2.09-1.13-.64-2.46-1.21-3.97-1.7-1.51-.49-3.25-.92-5.23-1.26-3.14-.64-5.87-1.48-8.19-2.53s-4.27-2.35-5.84-3.92c-1.57-1.57-2.73-3.36-3.49-5.36-.76-2-1.13-4.26-1.13-6.76s.54-4.71,1.61-6.8c1.07-2.09,2.56-3.91,4.45-5.45,1.89-1.54,4.11-2.73,6.67-3.57,2.56-.84,5.32-1.26,8.28-1.26,3.14,0,6.01.41,8.63,1.22,2.62.81,4.94,2.02,6.97,3.62,2.03,1.6,3.72,3.56,5.05,5.88l-6.62,6.54c-1.16-1.92-2.47-3.53-3.92-4.84-1.45-1.31-3.05-2.29-4.79-2.96s-3.6-1-5.58-1c-2.27,0-4.24.35-5.93,1.05-1.69.7-3.01,1.67-3.97,2.92-.96,1.25-1.44,2.72-1.44,4.4,0,1.22.23,2.34.7,3.36.46,1.02,1.18,1.92,2.14,2.7.96.78,2.25,1.48,3.88,2.09,1.63.61,3.57,1.15,5.84,1.61,3.2.7,6.04,1.58,8.54,2.66,2.5,1.08,4.62,2.34,6.36,3.79,1.74,1.45,3.06,3.08,3.97,4.88.9,1.8,1.35,3.75,1.35,5.84,0,3.89-.9,7.26-2.7,10.11-1.8,2.85-4.36,5.04-7.67,6.58-3.31,1.54-7.26,2.31-11.85,2.31Z"/>
          <path class="cls-1" d="M75.4,65.37c-4.18,0-7.92-1.03-11.2-3.09-3.28-2.06-5.88-4.88-7.8-8.46-1.92-3.57-2.88-7.66-2.88-12.25s.94-8.67,2.83-12.25c1.89-3.57,4.46-6.39,7.71-8.46,3.25-2.06,6.94-3.09,11.07-3.09,2.27,0,4.46.36,6.58,1.09,2.12.73,4.02,1.71,5.71,2.96,1.68,1.25,3.01,2.62,3.97,4.1s1.44,2.98,1.44,4.49l-2.62.17V0h8.98v64.5h-8.98v-10.9h1.74c0,1.39-.47,2.78-1.39,4.14-.93,1.37-2.17,2.63-3.7,3.79-1.54,1.16-3.31,2.09-5.32,2.79-2,.7-4.05,1.05-6.14,1.05ZM76.62,57.61c2.73,0,5.14-.7,7.23-2.09s3.73-3.3,4.92-5.71c1.19-2.41,1.79-5.16,1.79-8.24s-.6-5.83-1.79-8.24c-1.19-2.41-2.83-4.31-4.92-5.71-2.09-1.39-4.5-2.09-7.23-2.09s-5.14.7-7.23,2.09c-2.09,1.4-3.73,3.3-4.92,5.71-1.19,2.41-1.79,5.16-1.79,8.24s.59,5.83,1.79,8.24c1.19,2.41,2.83,4.31,4.92,5.71s4.5,2.09,7.23,2.09Z"/>
          <path class="cls-1" d="M132.92,65.37c-4.71,0-8.88-1-12.51-3.01-3.63-2-6.48-4.75-8.54-8.24-2.06-3.49-3.09-7.5-3.09-12.03,0-3.6.58-6.89,1.74-9.85,1.16-2.96,2.77-5.54,4.84-7.71,2.06-2.18,4.53-3.86,7.41-5.06,2.88-1.19,6-1.79,9.37-1.79,2.96,0,5.72.57,8.28,1.7,2.56,1.13,4.78,2.69,6.67,4.66,1.89,1.98,3.34,4.31,4.36,7.02,1.02,2.7,1.5,5.65,1.44,8.85l-.09,3.84h-37.39l-2-7.15h31.64l-1.31,1.48v-2.09c-.17-1.92-.81-3.63-1.92-5.14-1.1-1.51-2.5-2.7-4.18-3.57-1.69-.87-3.52-1.31-5.49-1.31-3.14,0-5.78.6-7.93,1.79-2.15,1.19-3.78,2.94-4.88,5.23-1.1,2.3-1.66,5.13-1.66,8.5s.67,5.97,2,8.32c1.34,2.35,3.22,4.17,5.67,5.45,2.44,1.28,5.26,1.92,8.46,1.92,2.27,0,4.37-.38,6.32-1.13,1.95-.75,4.05-2.12,6.32-4.1l4.53,6.36c-1.39,1.39-3.09,2.62-5.1,3.66s-4.13,1.87-6.36,2.48c-2.24.61-4.43.92-6.58.92Z"/>
          <path class="cls-1" d="M165.35,64.5V3.49h23.01c4.18,0,8,.74,11.46,2.22,3.46,1.48,6.46,3.59,9.02,6.32,2.56,2.73,4.53,5.96,5.93,9.67,1.39,3.72,2.09,7.82,2.09,12.29s-.7,8.59-2.09,12.33c-1.39,3.75-3.36,6.97-5.88,9.67-2.53,2.7-5.54,4.79-9.02,6.28s-7.32,2.22-11.51,2.22h-23.01ZM172.15,59.1l-.78-1.22h16.56c3.2,0,6.14-.57,8.85-1.7,2.7-1.13,5.03-2.76,6.97-4.88,1.95-2.12,3.46-4.63,4.53-7.54,1.07-2.91,1.61-6.16,1.61-9.76s-.54-6.86-1.61-9.76c-1.08-2.91-2.6-5.42-4.58-7.54-1.98-2.12-4.3-3.75-6.97-4.88-2.67-1.13-5.61-1.7-8.8-1.7h-16.82l1.05-1.05v50.03Z"/>
          <path class="cls-1" d="M247.63,65.37c-4.53,0-8.56-1.02-12.07-3.05-3.52-2.03-6.28-4.85-8.28-8.46-2-3.6-3.01-7.7-3.01-12.29s1-8.57,3.01-12.12c2-3.54,4.76-6.33,8.28-8.37,3.51-2.03,7.54-3.05,12.07-3.05s8.47,1.02,11.99,3.05c3.51,2.04,6.28,4.82,8.28,8.37,2,3.54,3.01,7.58,3.01,12.12s-1,8.69-3.01,12.29c-2,3.6-4.77,6.42-8.28,8.46-3.52,2.03-7.51,3.05-11.99,3.05ZM247.63,59.18c3.2,0,6.04-.77,8.54-2.31,2.5-1.54,4.45-3.63,5.84-6.28,1.39-2.64,2.09-5.65,2.09-9.02s-.7-6.36-2.09-8.98-3.34-4.66-5.84-6.14c-2.5-1.48-5.35-2.22-8.54-2.22s-6.06.74-8.58,2.22c-2.53,1.48-4.5,3.54-5.93,6.19-1.42,2.64-2.11,5.62-2.05,8.93-.06,3.37.62,6.38,2.05,9.02,1.42,2.64,3.4,4.74,5.93,6.28,2.53,1.54,5.39,2.31,8.58,2.31Z"/>
          <path class="cls-1" d="M293.21,64.5l-19.18-45.5h7.23l15.17,37.22-1.74.96,16.65-38.18h6.97l-20.4,45.5h-4.71Z"/>
        </g>
        <circle class="cls-2" cx="333.45" cy="51.21" r="13.18"/>
      </g>
      <g>
        <g>
          <path class="cls-1" d="M35.47,90.45c0-4.59,2.9-7.98,7.54-7.98,3.62,0,6.44,2.12,6.77,5.72h-3.73c-.23-1.69-1.31-2.73-3.05-2.73-2.5,0-3.73,2.14-3.73,5s1.21,5.02,3.73,5.02c1.74,0,2.86-1.04,3.09-2.96h3.73c-.3,3.79-3.2,5.95-6.82,5.95-4.7,0-7.54-3.41-7.54-8Z"/>
          <path class="cls-1" d="M51.58,82.79h3.64v15.35h-3.64v-15.35Z"/>
          <path class="cls-1" d="M59.42,93.39v-7.62h-2.71v-2.99h11.73v2.99h-5.36v7.07c0,1.88.68,2.5,2.39,2.5.87,0,1.76-.17,2.6-.44h.08v2.99c-1.14.38-2.52.57-3.85.57-3.49,0-4.89-1.4-4.89-5.06Z"/>
          <path class="cls-1" d="M71.27,98.2v-2.69h.08c.32.08.68.13,1.25.13.97,0,1.63-.36,2.1-1.25l.13-.28h-1.06l-4.59-11.33h3.87l2.73,7.22c.17.4.32.83.47,1.25h.06c.15-.44.28-.83.44-1.25l2.6-7.22h3.75l-4.66,11.62c-1.16,2.96-2.54,4.04-5.17,4.04-.76,0-1.42-.08-2.01-.25Z"/>
          <path class="cls-1" d="M84.17,82.79h6.25c3.41,0,5.8,1.78,5.8,5.08s-2.41,5.17-5.8,5.17h-2.6v5.1h-3.64v-15.35ZM92.55,87.91c0-1.61-.91-2.22-2.46-2.22h-2.29v4.45h2.29c1.52,0,2.46-.64,2.46-2.22Z"/>
          <path class="cls-1" d="M114.91,82.79h3.64v15.35h-3.64v-15.35Z"/>
          <path class="cls-1" d="M124.29,82.79v2.18h.08c1.12-1.65,2.73-2.5,4.93-2.5,3.26,0,4.98,1.86,4.98,5.76v9.91h-3.66v-9.34c0-2.31-.83-3.28-2.6-3.28-2.16,0-3.58,1.48-3.58,3.7v8.91h-3.64v-15.35h3.49Z"/>
          <path class="cls-1" d="M138.47,93.39v-7.62h-2.71v-2.99h11.73v2.99h-5.36v7.07c0,1.88.68,2.5,2.39,2.5.87,0,1.76-.17,2.6-.44h.08v2.99c-1.14.38-2.52.57-3.85.57-3.49,0-4.89-1.4-4.89-5.06Z"/>
          <circle class="cls-1" cx="150.81" cy="95.54" r="2.33"/>
          <g>
            <path class="cls-1" d="M110.18,88.01c-.71.32-1.14,1.05-1.12,1.83,0,.09,0,.18,0,.27.02.83-.14,1.58-.48,2.24-.34.67-.81,1.19-1.4,1.56-.6.38-1.27.56-2.03.56s-1.46-.19-2.06-.56c-.6-.38-1.07-.9-1.42-1.56s-.51-1.41-.49-2.24c-.02-.85.14-1.6.49-2.26.35-.66.82-1.18,1.42-1.56.11-.07.22-.13.34-.19.62-.31.98-.98.93-1.67h0c-.09-1.29-1.41-2.13-2.61-1.64-.27.11-.53.24-.79.38-1.23.69-2.19,1.63-2.9,2.82-.7,1.2-1.06,2.57-1.06,4.11s.35,2.91,1.06,4.11c.7,1.2,1.67,2.14,2.9,2.82,1.23.69,2.62,1.03,4.18,1.03s2.93-.34,4.15-1.03c1.23-.68,2.19-1.63,2.88-2.82.69-1.2,1.04-2.57,1.04-4.11,0-.06,0-.12,0-.17-.03-1.55-1.64-2.57-3.05-1.92h0Z"/>
            <circle class="cls-1" cx="108.05" cy="85.14" r="2.54"/>
          </g>
        </g>
        <g>
          <path class="cls-1" d="M10.54,98.02c-.65,0-1.29-.1-1.91-.3-.62-.2-1.18-.48-1.68-.83-.5-.35-.93-.76-1.27-1.22s-.58-.94-.7-1.43l.58.03-.08,3.47h-1.96v-19.58h1.99v9.09l-.4.11c.12-.49.35-.97.67-1.42.33-.45.74-.85,1.23-1.19.49-.34,1.04-.61,1.63-.81s1.21-.29,1.84-.29c1.24,0,2.34.31,3.33.93s1.76,1.47,2.34,2.54.87,2.31.87,3.71-.28,2.64-.85,3.72c-.57,1.09-1.34,1.94-2.32,2.56s-2.09.93-3.33.93ZM10.22,96.14c.94,0,1.77-.23,2.49-.7.72-.47,1.29-1.1,1.71-1.91s.62-1.71.62-2.72-.21-1.93-.62-2.73c-.42-.79-.99-1.42-1.71-1.88-.72-.46-1.55-.69-2.49-.69s-1.77.23-2.49.69c-.72.46-1.29,1.09-1.71,1.88-.42.79-.62,1.71-.62,2.73s.21,1.94.62,2.74c.41.8.98,1.44,1.71,1.89.72.46,1.55.69,2.49.69Z"/>
          <path class="cls-1" d="M21.72,103.85l2.68-6.52.19,1.88-6.94-15.29h2.25l4.74,10.6c.14.28.28.61.42.99.14.38.27.76.4,1.13l-.74-.08c.12-.3.24-.61.36-.93.12-.32.23-.63.33-.93l4.16-10.78h2.28l-5.59,13.83-2.38,6.09h-2.15Z"/>
        </g>
      </g>
    </g>
  </g>
</svg>