<?xml version="1.0" encoding="UTF-8"?>
<svg id="Layer_2" data-name="Layer 2" xmlns="http://www.w3.org/2000/svg" viewBox="0 0 255.72 41.92">
  <defs>
    <style>
      .cls-1 {
        fill: #1d1d1b;
      }

      .cls-2 {
        fill: #ed7174;
      }
    </style>
  </defs>
  <g id="Layer_1-2" data-name="Layer 1">
    <g>
      <g>
        <path class="cls-1" d="M38.07,41.92v-6.55h35.8v6.55h-35.8ZM67.88,39.04h-6.05V15.41c0-2.5-.68-4.44-2.05-5.83-1.37-1.39-3.33-2.09-5.87-2.09h-13.68V.94h14.69c2.78,0,5.14.52,7.06,1.55,1.92,1.03,3.38,2.54,4.39,4.54,1.01,1.99,1.51,4.45,1.51,7.38v24.63Z"/>
        <path class="cls-1" d="M99.43,41.92V7.49h-22.83V.94h34.86v6.55h-5.98v34.43h-6.05Z"/>
        <path class="cls-1" d="M156.83,41.92h-9.51v-23.77c0-2.4-.58-4.22-1.73-5.47-1.15-1.25-2.95-1.87-5.4-1.87h-21.32V.5h22.62c3.79,0,6.81.6,9.04,1.8,2.23,1.2,3.84,2.95,4.83,5.26.98,2.3,1.48,5.33,1.48,9.08v25.28ZM129.39,41.92h-9.51v-24.42h9.51v24.42Z"/>
        <path class="cls-1" d="M184.63,41.92V10.8h-22.18V.5h37.52v10.3h-5.83v31.11h-9.51Z"/>
        <path class="cls-1" d="M220.29,41.92h-9.58l-4.75-40.12v-.65l9.36-1.15,4.97,41.92ZM234.19,13.25c-1.3,3.27-3.31,5.68-6.05,7.24-2.74,1.56-6.34,2.34-10.8,2.34h-4.03v-6.48h1.87c3.07,0,5.45-.55,7.13-1.66,1.68-1.1,2.84-2.78,3.49-5.04.65-2.26.97-5.3.97-9.15h9.36c0,5.23-.65,9.48-1.94,12.75ZM252.52,23.73c-2.14,6.08-5.54,10.62-10.19,13.65-4.66,3.02-10.8,4.54-18.44,4.54h-8.79v-9.29h7.71c5.95,0,10.62-1.15,14.01-3.46,3.38-2.3,5.8-5.79,7.24-10.44s2.16-10.73,2.16-18.22h9.51c0,9.41-1.07,17.15-3.21,23.23Z"/>
      </g>
      <circle class="cls-2" cx="12.21" cy="28.91" r="12.21"/>
    </g>
  </g>
</svg>