<?xml version="1.0" encoding="UTF-8"?>
<svg id="Layer_2" data-name="Layer 2" xmlns="http://www.w3.org/2000/svg" viewBox="0 0 681.3 87.25">
  <defs>
    <style>
      .cls-1 {
        fill: #fac071;
      }

      .cls-2 {
        fill: #1d1d1b;
      }
    </style>
  </defs>
  <g id="Layer_1-2" data-name="Layer 1">
    <g>
      <g>
        <path class="cls-2" d="M0,67.2V6.19h9.41v61.01H0ZM7.84,48.72l-.52-10.55L39.31,6.19h12.38L7.84,48.72ZM40.44,67.2l-23.36-31.2,6.97-6.01,28.15,37.22h-11.77Z"/>
        <path class="cls-2" d="M67.38,11.33c-1.92,0-3.4-.49-4.45-1.48-1.05-.99-1.57-2.38-1.57-4.18,0-1.69.54-3.05,1.61-4.1,1.07-1.05,2.54-1.57,4.4-1.57s3.4.49,4.45,1.48c1.05.99,1.57,2.38,1.57,4.18,0,1.69-.54,3.05-1.61,4.1-1.08,1.05-2.54,1.57-4.4,1.57ZM63.02,67.2V21.44h8.98v45.76h-8.98Z"/>
        <path class="cls-2" d="M85.77,67.2V21.44h9.06v14.38l-.87-3.49c.64-2.21,1.73-4.21,3.27-6.01,1.54-1.8,3.31-3.23,5.32-4.27,2-1.05,4.08-1.57,6.23-1.57.99,0,1.93.09,2.83.26.9.17,1.61.38,2.14.61l-2.35,9.76c-.7-.29-1.47-.54-2.31-.74-.84-.2-1.67-.3-2.48-.3-1.57,0-3.07.3-4.49.92-1.42.61-2.67,1.45-3.75,2.53-1.08,1.08-1.93,2.33-2.57,3.75-.64,1.42-.96,2.98-.96,4.66v25.28h-9.06Z"/>
        <path class="cls-2" d="M128.56,87.25l9.24-21.35.09,7.15-22.84-51.6h10.46l14.29,33.64c.29.58.64,1.47,1.05,2.66.41,1.19.75,2.37,1.05,3.53l-2.27.52c.46-1.22.92-2.44,1.35-3.66.44-1.22.86-2.44,1.26-3.66l11.94-33.03h10.63l-18.83,45.76-7.76,20.05h-9.68Z"/>
        <path class="cls-2" d="M188.27,68.07c-3.78,0-7.22-1.05-10.33-3.14-3.11-2.09-5.59-4.94-7.45-8.54-1.86-3.6-2.79-7.67-2.79-12.2s.94-8.67,2.83-12.25c1.89-3.57,4.45-6.38,7.67-8.41,3.22-2.03,6.84-3.05,10.85-3.05,2.38,0,4.56.35,6.54,1.05,1.97.7,3.7,1.67,5.19,2.92,1.48,1.25,2.7,2.69,3.66,4.31.96,1.63,1.55,3.37,1.79,5.23l-2-.7v-11.85h9.06v45.76h-9.06v-10.9l2.09-.61c-.35,1.57-1.06,3.09-2.14,4.58-1.08,1.48-2.44,2.8-4.1,3.97-1.66,1.16-3.49,2.09-5.49,2.79-2,.7-4.11,1.05-6.32,1.05ZM190.62,59.79c2.73,0,5.14-.67,7.23-2s3.73-3.18,4.92-5.54c1.19-2.35,1.79-5.04,1.79-8.06s-.6-5.61-1.79-7.93c-1.19-2.32-2.83-4.15-4.92-5.49-2.09-1.34-4.5-2-7.23-2s-5.04.67-7.1,2c-2.06,1.34-3.69,3.17-4.88,5.49-1.19,2.32-1.79,4.97-1.79,7.93s.6,5.71,1.79,8.06c1.19,2.35,2.82,4.2,4.88,5.54,2.06,1.34,4.43,2,7.1,2Z"/>
        <path class="cls-2" d="M222,30.16v-8.72h29.11v8.72h-29.11ZM231.5,67.2V9.76h8.98v57.44h-8.98Z"/>
        <path class="cls-2" d="M262.01,67.2V6.19h6.8v61.01h-6.8ZM265.32,40.09v-6.62h40.36v6.62h-40.36ZM302.8,67.2V6.19h6.8v61.01h-6.8Z"/>
        <path class="cls-2" d="M342.72,68.07c-3.95,0-7.53-1.03-10.72-3.09-3.2-2.06-5.72-4.88-7.58-8.46-1.86-3.57-2.79-7.63-2.79-12.16s.96-8.66,2.88-12.2c1.92-3.54,4.49-6.33,7.71-8.37,3.22-2.03,6.84-3.05,10.85-3.05,2.38,0,4.59.35,6.62,1.05,2.03.7,3.85,1.67,5.45,2.92,1.6,1.25,2.93,2.7,4.01,4.36,1.07,1.66,1.82,3.44,2.22,5.36l-1.92-.96.26-11.77h6.54v45.5h-6.62v-11.16l1.74-1.13c-.41,1.74-1.19,3.41-2.35,5.01-1.16,1.6-2.57,3.01-4.23,4.23-1.66,1.22-3.52,2.18-5.58,2.88-2.06.7-4.23,1.05-6.49,1.05ZM344.2,61.8c3.02,0,5.72-.74,8.11-2.22,2.38-1.48,4.26-3.54,5.62-6.19,1.36-2.64,2.05-5.65,2.05-9.02s-.68-6.36-2.05-8.98c-1.37-2.61-3.24-4.68-5.62-6.19-2.38-1.51-5.09-2.27-8.11-2.27s-5.8.76-8.15,2.27c-2.35,1.51-4.21,3.57-5.58,6.19-1.37,2.62-2.05,5.61-2.05,8.98s.67,6.29,2,8.93c1.34,2.64,3.2,4.72,5.58,6.23,2.38,1.51,5.11,2.27,8.19,2.27Z"/>
        <path class="cls-2" d="M378.89,67.2V21.7h6.54l.17,10.37-1.31.44c.46-1.74,1.23-3.33,2.31-4.75,1.07-1.42,2.37-2.66,3.88-3.7,1.51-1.05,3.17-1.84,4.97-2.4,1.8-.55,3.69-.83,5.67-.83,2.38,0,4.52.39,6.41,1.18,1.89.78,3.49,2.12,4.79,4.01,1.31,1.89,2.31,4.37,3.01,7.45l-1.57-.79.61-1.48c.58-1.34,1.44-2.63,2.57-3.88,1.13-1.25,2.44-2.37,3.92-3.36,1.48-.99,3.11-1.76,4.88-2.31,1.77-.55,3.59-.83,5.45-.83,3.19,0,5.9.68,8.11,2.05,2.21,1.37,3.88,3.44,5.01,6.23s1.7,6.33,1.7,10.63v27.46h-6.71v-27.11c0-3.02-.38-5.49-1.13-7.41-.76-1.92-1.87-3.36-3.36-4.31-1.48-.96-3.36-1.44-5.62-1.44-1.98,0-3.79.33-5.45,1-1.66.67-3.08,1.6-4.27,2.79s-2.12,2.54-2.79,4.05c-.67,1.51-1,3.14-1,4.88v27.54h-6.62v-27.19c0-2.91-.39-5.32-1.18-7.23-.78-1.92-1.93-3.37-3.44-4.36-1.51-.99-3.37-1.48-5.58-1.48-1.92,0-3.69.33-5.32,1-1.63.67-3.04,1.58-4.23,2.75-1.19,1.16-2.12,2.5-2.79,4.01-.67,1.51-1,3.14-1,4.88v27.63h-6.62Z"/>
        <path class="cls-2" d="M476.17,68.07c-3.95,0-7.53-1.03-10.72-3.09-3.2-2.06-5.72-4.88-7.58-8.46-1.86-3.57-2.79-7.63-2.79-12.16s.96-8.66,2.88-12.2c1.92-3.54,4.49-6.33,7.71-8.37,3.22-2.03,6.84-3.05,10.85-3.05,2.38,0,4.59.35,6.62,1.05,2.03.7,3.85,1.67,5.45,2.92,1.6,1.25,2.93,2.7,4.01,4.36,1.07,1.66,1.82,3.44,2.22,5.36l-1.92-.96.26-11.77h6.54v45.5h-6.62v-11.16l1.74-1.13c-.41,1.74-1.19,3.41-2.35,5.01-1.16,1.6-2.57,3.01-4.23,4.23-1.66,1.22-3.52,2.18-5.58,2.88-2.06.7-4.23,1.05-6.49,1.05ZM477.65,61.8c3.02,0,5.72-.74,8.11-2.22,2.38-1.48,4.26-3.54,5.62-6.19,1.36-2.64,2.05-5.65,2.05-9.02s-.68-6.36-2.05-8.98c-1.37-2.61-3.24-4.68-5.62-6.19-2.38-1.51-5.09-2.27-8.11-2.27s-5.8.76-8.15,2.27c-2.35,1.51-4.21,3.57-5.58,6.19-1.37,2.62-2.05,5.61-2.05,8.98s.67,6.29,2,8.93c1.34,2.64,3.2,4.72,5.58,6.23,2.38,1.51,5.11,2.27,8.19,2.27Z"/>
        <path class="cls-2" d="M527.33,68.07c-3.89,0-7.38-.73-10.46-2.18-3.08-1.45-5.52-3.37-7.32-5.75l4.62-4.01c1.69,2.03,3.67,3.57,5.97,4.62,2.29,1.05,4.87,1.57,7.71,1.57,1.45,0,2.76-.16,3.92-.48,1.16-.32,2.18-.8,3.05-1.44.87-.64,1.54-1.39,2-2.27.46-.87.7-1.83.7-2.88,0-1.92-.84-3.51-2.53-4.79-.76-.52-1.83-1.06-3.23-1.61-1.39-.55-3.08-1.09-5.06-1.61-3.25-.93-5.96-1.87-8.11-2.83-2.15-.96-3.83-2.08-5.06-3.36-.87-1.05-1.53-2.18-1.96-3.4-.44-1.22-.65-2.56-.65-4.01,0-1.86.39-3.57,1.18-5.14.78-1.57,1.89-2.95,3.31-4.14,1.42-1.19,3.11-2.09,5.06-2.7,1.95-.61,4.05-.92,6.32-.92,2.15,0,4.27.29,6.36.87,2.09.58,4.04,1.42,5.84,2.53,1.8,1.1,3.34,2.41,4.62,3.92l-4.01,4.36c-1.1-1.16-2.32-2.21-3.66-3.14-1.34-.93-2.75-1.66-4.23-2.18-1.48-.52-3.01-.78-4.58-.78-1.39,0-2.69.17-3.88.52-1.19.35-2.21.83-3.05,1.44-.84.61-1.48,1.35-1.92,2.22-.44.87-.65,1.83-.65,2.88,0,.87.17,1.66.52,2.35s.84,1.31,1.48,1.83c.81.64,1.96,1.23,3.44,1.79,1.48.55,3.33,1.12,5.54,1.7,2.56.7,4.72,1.41,6.49,2.13,1.77.73,3.24,1.58,4.4,2.57,1.57,1.16,2.69,2.5,3.36,4.01.67,1.51,1,3.23,1,5.14,0,2.56-.71,4.82-2.14,6.8-1.42,1.98-3.39,3.53-5.88,4.66-2.5,1.13-5.35,1.7-8.54,1.7Z"/>
        <path class="cls-2" d="M554.35,67.2V2.7h6.54v64.5h-6.54Z"/>
        <path class="cls-2" d="M589.48,68.07c-3.49,0-6.44-.71-8.85-2.14-2.41-1.42-4.24-3.5-5.49-6.23-1.25-2.73-1.87-6.13-1.87-10.2v-27.8h6.62v26.5c0,3.08.42,5.65,1.26,7.71.84,2.06,2.12,3.62,3.83,4.66,1.71,1.05,3.82,1.57,6.32,1.57,1.92,0,3.69-.33,5.32-1,1.63-.67,3.05-1.58,4.27-2.75,1.22-1.16,2.18-2.53,2.88-4.1.7-1.57,1.05-3.22,1.05-4.97v-27.63h6.54v45.5h-6.45l-.26-9.59,1.05-.52c-.7,2.03-1.86,3.88-3.49,5.53-1.63,1.66-3.56,2.98-5.8,3.97-2.24.99-4.55,1.48-6.93,1.48Z"/>
        <path class="cls-2" d="M624.26,67.2V2.7h6.54v64.5h-6.54Z"/>
      </g>
      <circle class="cls-1" cx="668.12" cy="53.91" r="13.18"/>
    </g>
  </g>
</svg>