<?xml version="1.0" encoding="UTF-8"?>
<svg id="Layer_2" data-name="Layer 2" xmlns="http://www.w3.org/2000/svg" viewBox="0 0 346.64 65.37">
  <defs>
    <style>
      .cls-1 {
        fill: #1d1d1b;
      }

      .cls-2 {
        fill: #ed7174;
      }
    </style>
  </defs>
  <g id="Layer_1-2" data-name="Layer 1">
    <g>
      <g>
        <path class="cls-1" d="M23.01,65.37c-3.31,0-6.38-.44-9.2-1.31-2.82-.87-5.38-2.19-7.67-3.97-2.3-1.77-4.34-3.97-6.15-6.58l6.45-7.41c2.85,4.07,5.58,6.89,8.19,8.46s5.72,2.35,9.33,2.35c2.21,0,4.21-.35,6.01-1.05,1.8-.7,3.23-1.66,4.27-2.88,1.05-1.22,1.57-2.61,1.57-4.18,0-1.05-.17-2.03-.52-2.96s-.89-1.77-1.61-2.53c-.73-.75-1.66-1.45-2.79-2.09-1.13-.64-2.46-1.21-3.97-1.7-1.51-.49-3.25-.92-5.23-1.26-3.14-.64-5.87-1.48-8.19-2.53-2.32-1.05-4.27-2.35-5.84-3.92-1.57-1.57-2.73-3.36-3.49-5.36-.76-2-1.13-4.26-1.13-6.76s.54-4.71,1.61-6.8c1.07-2.09,2.56-3.91,4.45-5.45,1.89-1.54,4.11-2.73,6.67-3.57,2.56-.84,5.32-1.26,8.28-1.26,3.14,0,6.01.41,8.63,1.22,2.61.81,4.94,2.02,6.97,3.62,2.03,1.6,3.72,3.56,5.06,5.88l-6.62,6.54c-1.16-1.92-2.47-3.53-3.92-4.84-1.45-1.31-3.05-2.29-4.79-2.96s-3.6-1-5.58-1c-2.27,0-4.24.35-5.93,1.05-1.69.7-3.01,1.67-3.97,2.92-.96,1.25-1.44,2.72-1.44,4.4,0,1.22.23,2.34.7,3.36.46,1.02,1.18,1.92,2.14,2.7.96.78,2.25,1.48,3.88,2.09,1.63.61,3.57,1.15,5.84,1.61,3.2.7,6.04,1.58,8.54,2.66,2.5,1.08,4.62,2.34,6.36,3.79,1.74,1.45,3.06,3.08,3.97,4.88.9,1.8,1.35,3.75,1.35,5.84,0,3.89-.9,7.26-2.7,10.11-1.8,2.85-4.36,5.04-7.67,6.58-3.31,1.54-7.26,2.31-11.85,2.31Z"/>
        <path class="cls-1" d="M75.4,65.37c-4.18,0-7.92-1.03-11.2-3.09-3.28-2.06-5.88-4.88-7.8-8.46-1.92-3.57-2.88-7.66-2.88-12.25s.94-8.67,2.83-12.25c1.89-3.57,4.46-6.39,7.71-8.46,3.25-2.06,6.94-3.09,11.07-3.09,2.27,0,4.46.36,6.58,1.09,2.12.73,4.02,1.71,5.71,2.96,1.68,1.25,3.01,2.62,3.97,4.1.96,1.48,1.44,2.98,1.44,4.49l-2.62.17V0h8.98v64.5h-8.98v-10.9h1.74c0,1.39-.47,2.78-1.4,4.14-.93,1.37-2.17,2.63-3.7,3.79-1.54,1.16-3.31,2.09-5.32,2.79-2,.7-4.05,1.05-6.15,1.05ZM76.62,57.61c2.73,0,5.14-.7,7.23-2.09s3.73-3.3,4.92-5.71c1.19-2.41,1.79-5.16,1.79-8.24s-.6-5.83-1.79-8.24c-1.19-2.41-2.83-4.31-4.92-5.71-2.09-1.39-4.5-2.09-7.23-2.09s-5.14.7-7.23,2.09c-2.09,1.4-3.73,3.3-4.92,5.71-1.19,2.41-1.79,5.16-1.79,8.24s.6,5.83,1.79,8.24c1.19,2.41,2.83,4.31,4.92,5.71s4.5,2.09,7.23,2.09Z"/>
        <path class="cls-1" d="M132.92,65.37c-4.71,0-8.88-1-12.51-3.01-3.63-2-6.48-4.75-8.54-8.24-2.06-3.49-3.09-7.5-3.09-12.03,0-3.6.58-6.89,1.74-9.85,1.16-2.96,2.77-5.54,4.84-7.71,2.06-2.18,4.53-3.86,7.41-5.06,2.88-1.19,6-1.79,9.37-1.79,2.96,0,5.72.57,8.28,1.7,2.56,1.13,4.78,2.69,6.67,4.66,1.89,1.98,3.34,4.31,4.36,7.02,1.02,2.7,1.5,5.65,1.44,8.85l-.09,3.84h-37.39l-2-7.15h31.64l-1.31,1.48v-2.09c-.17-1.92-.81-3.63-1.92-5.14-1.1-1.51-2.5-2.7-4.18-3.57-1.69-.87-3.52-1.31-5.49-1.31-3.14,0-5.78.6-7.93,1.79-2.15,1.19-3.78,2.94-4.88,5.23-1.1,2.3-1.66,5.13-1.66,8.5s.67,5.97,2,8.32c1.34,2.35,3.23,4.17,5.67,5.45,2.44,1.28,5.26,1.92,8.45,1.92,2.27,0,4.37-.38,6.32-1.13,1.95-.75,4.05-2.12,6.32-4.1l4.53,6.36c-1.39,1.39-3.09,2.62-5.1,3.66-2,1.05-4.13,1.87-6.36,2.48-2.24.61-4.43.92-6.58.92Z"/>
        <path class="cls-1" d="M165.35,64.5V3.49h23.01c4.18,0,8,.74,11.46,2.22,3.46,1.48,6.46,3.59,9.02,6.32,2.56,2.73,4.53,5.96,5.93,9.67,1.39,3.72,2.09,7.82,2.09,12.29s-.7,8.59-2.09,12.33c-1.4,3.75-3.36,6.97-5.88,9.67-2.53,2.7-5.53,4.79-9.02,6.28-3.49,1.48-7.32,2.22-11.51,2.22h-23.01ZM172.15,59.1l-.78-1.22h16.56c3.19,0,6.15-.57,8.85-1.7,2.7-1.13,5.03-2.76,6.97-4.88,1.95-2.12,3.46-4.63,4.53-7.54,1.07-2.91,1.61-6.16,1.61-9.76s-.54-6.86-1.61-9.76c-1.08-2.91-2.6-5.42-4.58-7.54-1.98-2.12-4.3-3.75-6.97-4.88-2.67-1.13-5.61-1.7-8.8-1.7h-16.82l1.05-1.05v50.03Z"/>
        <path class="cls-1" d="M247.63,65.37c-4.53,0-8.56-1.02-12.07-3.05-3.52-2.03-6.28-4.85-8.28-8.46-2-3.6-3.01-7.7-3.01-12.29s1-8.57,3.01-12.12c2-3.54,4.76-6.33,8.28-8.37,3.52-2.03,7.54-3.05,12.07-3.05s8.47,1.02,11.98,3.05c3.52,2.04,6.28,4.82,8.28,8.37,2,3.54,3.01,7.58,3.01,12.12s-1,8.69-3.01,12.29c-2,3.6-4.77,6.42-8.28,8.46-3.52,2.03-7.51,3.05-11.98,3.05ZM247.63,59.18c3.19,0,6.04-.77,8.54-2.31,2.5-1.54,4.45-3.63,5.84-6.28,1.4-2.64,2.09-5.65,2.09-9.02s-.7-6.36-2.09-8.98c-1.39-2.62-3.34-4.66-5.84-6.14-2.5-1.48-5.35-2.22-8.54-2.22s-6.06.74-8.59,2.22c-2.53,1.48-4.5,3.54-5.93,6.19-1.42,2.64-2.11,5.62-2.05,8.93-.06,3.37.62,6.38,2.05,9.02,1.42,2.64,3.4,4.74,5.93,6.28,2.53,1.54,5.39,2.31,8.59,2.31Z"/>
        <path class="cls-1" d="M293.21,64.5l-19.18-45.5h7.23l15.17,37.22-1.74.96,16.65-38.18h6.97l-20.4,45.5h-4.71Z"/>
      </g>
      <circle class="cls-2" cx="333.46" cy="51.21" r="13.18"/>
    </g>
  </g>
</svg>