<?xml version="1.0" encoding="UTF-8"?>
<svg id="Layer_2" data-name="Layer 2" xmlns="http://www.w3.org/2000/svg" viewBox="0 0 284.55 67.2">
  <defs>
    <style>
      .cls-1 {
        fill: #448bc9;
      }

      .cls-2 {
        fill: #1d1d1b;
      }
    </style>
  </defs>
  <g id="Layer_1-2" data-name="Layer 1">
    <g>
      <g>
        <path class="cls-2" d="M17.08,67.2V15.25H0V6.19h44.1v9.07h-17.61v51.95h-9.41Z"/>
        <path class="cls-2" d="M45.41,67.2v-7.5l23.62-31.55v1.05h-23.62v-7.76h33.38v7.32l-23.27,31.12-.35-.44h24.14v7.76h-33.91Z"/>
        <path class="cls-2" d="M89.52,67.2V21.44h9.06v14.38l-.87-3.49c.64-2.21,1.73-4.21,3.27-6.01,1.54-1.8,3.31-3.23,5.32-4.27,2-1.05,4.08-1.57,6.23-1.57.99,0,1.93.09,2.83.26.9.17,1.61.38,2.14.61l-2.35,9.76c-.7-.29-1.47-.54-2.31-.74-.84-.2-1.67-.3-2.48-.3-1.57,0-3.07.3-4.49.92-1.42.61-2.67,1.45-3.75,2.53-1.08,1.08-1.93,2.33-2.57,3.75-.64,1.42-.96,2.98-.96,4.66v25.28h-9.06Z"/>
        <path class="cls-2" d="M130.48,11.33c-1.92,0-3.4-.49-4.45-1.48-1.05-.99-1.57-2.38-1.57-4.18,0-1.69.54-3.05,1.61-4.1,1.07-1.05,2.54-1.57,4.4-1.57s3.4.49,4.45,1.48c1.05.99,1.57,2.38,1.57,4.18,0,1.69-.54,3.05-1.61,4.1-1.08,1.05-2.54,1.57-4.4,1.57ZM126.12,67.2V21.44h8.98v45.76h-8.98Z"/>
        <path class="cls-2" d="M146.52,30.51v-8.28h27.19v8.28h-27.19ZM153.84,67.2V16.3c0-2.62.58-4.94,1.74-6.97,1.16-2.03,2.76-3.63,4.79-4.79,2.03-1.16,4.39-1.74,7.06-1.74,1.86,0,3.6.35,5.23,1.05,1.63.7,2.93,1.63,3.92,2.79l-3.05,6.89c-.76-.7-1.58-1.26-2.48-1.7-.9-.44-1.76-.65-2.57-.65-1.22,0-2.25.19-3.09.57-.84.38-1.47.96-1.87,1.74-.41.78-.61,1.73-.61,2.83v50.9h-9.06ZM188.97,11.33c-1.92,0-3.4-.49-4.44-1.48-1.05-.99-1.57-2.38-1.57-4.18,0-1.69.54-3.05,1.61-4.1,1.07-1.05,2.54-1.57,4.4-1.57s3.4.49,4.45,1.48c1.05.99,1.57,2.38,1.57,4.18,0,1.69-.54,3.05-1.61,4.1-1.08,1.05-2.54,1.57-4.4,1.57ZM184.61,67.2V21.44h8.98v45.76h-8.98Z"/>
        <path class="cls-2" d="M207.36,67.2V21.44h8.98v9.41l-1.57,1.05c.58-2.03,1.71-3.91,3.4-5.62,1.68-1.71,3.69-3.11,6.01-4.18,2.32-1.07,4.71-1.61,7.15-1.61,3.49,0,6.39.68,8.72,2.05,2.32,1.37,4.07,3.44,5.23,6.23,1.16,2.79,1.74,6.31,1.74,10.55v27.89h-8.98v-27.28c0-2.61-.35-4.78-1.05-6.49-.7-1.71-1.77-2.96-3.22-3.75-1.45-.78-3.26-1.12-5.4-1-1.74,0-3.34.28-4.79.83-1.45.55-2.72,1.32-3.79,2.31-1.08.99-1.92,2.14-2.53,3.44-.61,1.31-.92,2.72-.92,4.23v27.72h-8.98Z"/>
      </g>
      <circle class="cls-1" cx="271.37" cy="53.91" r="13.18"/>
    </g>
  </g>
</svg>